<svg width="28" height="28" viewBox="0 0 28 28" fill="none" xmlns="http://www.w3.org/2000/svg">
<mask id="path-1-inside-1_1694_298" fill="white">
<path d="M14 28C16.7689 28 19.4757 27.1789 21.778 25.6406C24.0803 24.1022 25.8747 21.9157 26.9343 19.3576C27.9939 16.7994 28.2712 13.9845 27.731 11.2687C27.1908 8.553 25.8574 6.05844 23.8995 4.1005C21.9416 2.14257 19.447 0.809199 16.7313 0.269006C14.0155 -0.271188 11.2006 0.00605897 8.64244 1.06569C6.08427 2.12531 3.89777 3.91973 2.35943 6.22201C0.821088 8.5243 3.32377e-06 11.2311 3.20274e-06 14L4.57936 14C4.57936 12.1368 5.13187 10.3154 6.16703 8.76617C7.20218 7.21696 8.67348 6.00949 10.3949 5.29646C12.1163 4.58344 14.0105 4.39688 15.8379 4.76037C17.6653 5.12387 19.3439 6.0211 20.6614 7.3386C21.9789 8.6561 22.8761 10.3347 23.2396 12.1621C23.6031 13.9895 23.4166 15.8837 22.7035 17.6051C21.9905 19.3265 20.783 20.7978 19.2338 21.833C17.6846 22.8681 15.8632 23.4206 14 23.4206L14 28Z"/>
</mask>
<path d="M14 28C16.7689 28 19.4757 27.1789 21.778 25.6406C24.0803 24.1022 25.8747 21.9157 26.9343 19.3576C27.9939 16.7994 28.2712 13.9845 27.731 11.2687C27.1908 8.553 25.8574 6.05844 23.8995 4.1005C21.9416 2.14257 19.447 0.809199 16.7313 0.269006C14.0155 -0.271188 11.2006 0.00605897 8.64244 1.06569C6.08427 2.12531 3.89777 3.91973 2.35943 6.22201C0.821088 8.5243 3.32377e-06 11.2311 3.20274e-06 14L4.57936 14C4.57936 12.1368 5.13187 10.3154 6.16703 8.76617C7.20218 7.21696 8.67348 6.00949 10.3949 5.29646C12.1163 4.58344 14.0105 4.39688 15.8379 4.76037C17.6653 5.12387 19.3439 6.0211 20.6614 7.3386C21.9789 8.6561 22.8761 10.3347 23.2396 12.1621C23.6031 13.9895 23.4166 15.8837 22.7035 17.6051C21.9905 19.3265 20.783 20.7978 19.2338 21.833C17.6846 22.8681 15.8632 23.4206 14 23.4206L14 28Z" stroke="url(#paint0_linear_1694_298)" stroke-width="4" mask="url(#path-1-inside-1_1694_298)"/>
<defs>
<linearGradient id="paint0_linear_1694_298" x1="28" y1="28" x2="4.64916e-06" y2="-2.05838e-06" gradientUnits="userSpaceOnUse">
<stop stop-color="#FF66C4"/>
<stop offset="1" stop-color="#FF66C4" stop-opacity="0"/>
</linearGradient>
</defs>
</svg>
