<svg width="845" height="77" viewBox="0 0 845 77" fill="none" xmlns="http://www.w3.org/2000/svg">
<path d="M90.1304 26.2676V13.1338C90.1304 5.79432 83.9238 0 76.368 0H13.7624C6.07166 0 0 5.79432 0 13.1338C0 13.5201 0 14.0351 0 14.4214V19.4431C0 30.0017 8.09555 33.9933 20.1039 38.6288L54.9148 50.7324H0V63.8662C0 71.2057 6.07166 77 13.7624 77H76.368C83.9238 77 90.1304 71.2057 90.1304 63.8662C90.1304 63.6087 90.1304 63.2224 90.1304 62.8361V62.9649V57.8144C90.1304 47.2559 81.8999 43.2642 70.0265 38.6288L34.2711 26.2676H90.1304Z" fill="white"/>
<path d="M184.008 0H156.753V41.7191C156.753 47.7709 151.626 52.5351 145.419 52.5351H135.3C129.093 52.5351 123.966 47.7709 123.966 41.7191V0H96.8461V51.1187C96.8461 65.4114 108.989 77 123.966 77H156.753C171.73 77 184.008 65.4114 184.008 51.1187V0Z" fill="white"/>
<path d="M251.24 19.9582V28.8428H217.239V19.9582H251.24ZM276.336 21.1171C276.336 9.52843 266.487 0.128769 254.344 0.128769V0H201.183V0.128769H190.793V77H217.239V50.8612H254.344C266.487 50.8612 276.336 41.5903 276.336 30.0017V21.1171Z" fill="white"/>
<path d="M318.109 20.7308H367.896V0H283.028V77H367.896V56.2692H318.109V48.9298H367.896V28.0702H318.109V20.7308Z" fill="white"/>
<path d="M439.365 24.3361V25.1087C439.365 27.5552 435.047 29.6154 429.65 29.6154H401.855V19.8294H429.65C435.047 19.8294 439.365 21.8896 439.365 24.3361ZM473.771 77L457.04 45.8395C461.897 41.9766 464.866 36.0535 464.866 29.4866V21.6321C464.866 9.6572 454.746 0 442.198 0H374.735V77H401.855V51.1187H431.944L445.841 77H473.771Z" fill="white"/>
<path d="M566.756 77V51.505H509.547V0H480.673V77H566.756Z" fill="white"/>
<path d="M640.759 30.1304V46.8696C640.759 50.8612 637.386 54.0803 633.203 54.0803H604.06C600.012 54.0803 596.639 50.8612 596.639 46.8696V30.1304C596.639 26.1388 600.012 22.9197 604.06 22.9197H633.203C637.386 22.9197 640.759 26.1388 640.759 30.1304ZM663.832 23.4348C663.832 10.4298 652.768 0 639.14 0H598.123C584.495 0 573.566 10.4298 573.566 23.4348V53.5652C573.566 66.5702 584.495 77 598.123 77H639.14C652.768 77 663.832 66.5702 663.832 53.5652V23.4348Z" fill="white"/>
<path d="M751.23 27.2977V0H670.544V27.2977H696.585V77H725.054V27.2977H751.23Z" fill="white"/>
<path d="M844.118 77V51.505H786.909V0H758.035V77H844.118Z" fill="white"/>
</svg>
